<svg width="176" height="13" viewBox="0 0 176 13" fill="none" xmlns="http://www.w3.org/2000/svg">
<path d="M8.72727 4.125C8.64773 3.84848 8.53599 3.60417 8.39205 3.39205C8.24811 3.17614 8.07197 2.99432 7.86364 2.84659C7.65909 2.69508 7.42424 2.57955 7.15909 2.5C6.89773 2.42045 6.60795 2.38068 6.28977 2.38068C5.69508 2.38068 5.17235 2.52841 4.72159 2.82386C4.27462 3.11932 3.92614 3.54924 3.67614 4.11364C3.42614 4.67424 3.30114 5.35985 3.30114 6.17045C3.30114 6.98106 3.42424 7.67045 3.67045 8.23864C3.91667 8.80682 4.26515 9.24053 4.71591 9.53977C5.16667 9.83523 5.69886 9.98295 6.3125 9.98295C6.86932 9.98295 7.3447 9.88447 7.73864 9.6875C8.13636 9.48674 8.43939 9.20455 8.64773 8.84091C8.85985 8.47727 8.96591 8.04735 8.96591 7.55114L9.46591 7.625H6.46591V5.77273H11.3352V7.23864C11.3352 8.26136 11.1193 9.14015 10.6875 9.875C10.2557 10.6061 9.66098 11.1705 8.90341 11.5682C8.14583 11.9621 7.27841 12.1591 6.30114 12.1591C5.21023 12.1591 4.25189 11.9186 3.42614 11.4375C2.60038 10.9527 1.95644 10.2652 1.49432 9.375C1.03598 8.48106 0.806818 7.42045 0.806818 6.19318C0.806818 5.25 0.943182 4.40909 1.21591 3.67045C1.49242 2.92803 1.87879 2.29924 2.375 1.78409C2.87121 1.26894 3.44886 0.876893 4.10795 0.607954C4.76705 0.339015 5.48106 0.204545 6.25 0.204545C6.90909 0.204545 7.52273 0.301136 8.09091 0.494318C8.65909 0.683712 9.16288 0.952651 9.60227 1.30114C10.0455 1.64962 10.4072 2.06439 10.6875 2.54545C10.9678 3.02273 11.1477 3.54924 11.2273 4.125H8.72727ZM13.1378 12V3.27273H15.4844V4.79545H15.5753C15.7344 4.25379 16.0014 3.8447 16.3764 3.56818C16.7514 3.28788 17.1832 3.14773 17.6719 3.14773C17.7931 3.14773 17.9238 3.1553 18.0639 3.17045C18.2041 3.18561 18.3272 3.20644 18.4332 3.23295V5.38068C18.3196 5.34659 18.1624 5.31629 17.9616 5.28977C17.7609 5.26326 17.5772 5.25 17.4105 5.25C17.0545 5.25 16.7363 5.32765 16.456 5.48295C16.1795 5.63447 15.9598 5.84659 15.7969 6.11932C15.6378 6.39205 15.5582 6.70644 15.5582 7.0625V12H13.1378ZM23.2557 12.1705C22.358 12.1705 21.5852 11.9886 20.9375 11.625C20.2936 11.2576 19.7973 10.7386 19.4489 10.0682C19.1004 9.39394 18.9261 8.59659 18.9261 7.67614C18.9261 6.77841 19.1004 5.99053 19.4489 5.3125C19.7973 4.63447 20.2879 4.10606 20.9205 3.72727C21.5568 3.34848 22.303 3.15909 23.1591 3.15909C23.7348 3.15909 24.2708 3.25189 24.767 3.4375C25.267 3.61932 25.7027 3.89394 26.0739 4.26136C26.4489 4.62879 26.7405 5.09091 26.9489 5.64773C27.1572 6.20076 27.2614 6.84848 27.2614 7.59091V8.25568H19.892V6.75568H24.983C24.983 6.4072 24.9072 6.09848 24.7557 5.82955C24.6042 5.56061 24.3939 5.35038 24.125 5.19886C23.8598 5.04356 23.5511 4.96591 23.1989 4.96591C22.8314 4.96591 22.5057 5.05114 22.2216 5.22159C21.9413 5.38826 21.7216 5.61364 21.5625 5.89773C21.4034 6.17803 21.322 6.49053 21.3182 6.83523V8.26136C21.3182 8.69318 21.3977 9.06629 21.5568 9.38068C21.7197 9.69508 21.9489 9.9375 22.2443 10.108C22.5398 10.2784 22.8902 10.3636 23.2955 10.3636C23.5644 10.3636 23.8106 10.3258 24.0341 10.25C24.2576 10.1742 24.4489 10.0606 24.608 9.90909C24.767 9.75758 24.8883 9.57197 24.9716 9.35227L27.2102 9.5C27.0966 10.0379 26.8636 10.5076 26.5114 10.9091C26.1629 11.3068 25.7121 11.6174 25.1591 11.8409C24.6098 12.0606 23.9754 12.1705 23.2557 12.1705ZM32.8182 12.1705C31.9205 12.1705 31.1477 11.9886 30.5 11.625C29.8561 11.2576 29.3598 10.7386 29.0114 10.0682C28.6629 9.39394 28.4886 8.59659 28.4886 7.67614C28.4886 6.77841 28.6629 5.99053 29.0114 5.3125C29.3598 4.63447 29.8504 4.10606 30.483 3.72727C31.1193 3.34848 31.8655 3.15909 32.7216 3.15909C33.2973 3.15909 33.8333 3.25189 34.3295 3.4375C34.8295 3.61932 35.2652 3.89394 35.6364 4.26136C36.0114 4.62879 36.303 5.09091 36.5114 5.64773C36.7197 6.20076 36.8239 6.84848 36.8239 7.59091V8.25568H29.4545V6.75568H34.5455C34.5455 6.4072 34.4697 6.09848 34.3182 5.82955C34.1667 5.56061 33.9564 5.35038 33.6875 5.19886C33.4223 5.04356 33.1136 4.96591 32.7614 4.96591C32.3939 4.96591 32.0682 5.05114 31.7841 5.22159C31.5038 5.38826 31.2841 5.61364 31.125 5.89773C30.9659 6.17803 30.8845 6.49053 30.8807 6.83523V8.26136C30.8807 8.69318 30.9602 9.06629 31.1193 9.38068C31.2822 9.69508 31.5114 9.9375 31.8068 10.108C32.1023 10.2784 32.4527 10.3636 32.858 10.3636C33.1269 10.3636 33.3731 10.3258 33.5966 10.25C33.8201 10.1742 34.0114 10.0606 34.1705 9.90909C34.3295 9.75758 34.4508 9.57197 34.5341 9.35227L36.7727 9.5C36.6591 10.0379 36.4261 10.5076 36.0739 10.9091C35.7254 11.3068 35.2746 11.6174 34.7216 11.8409C34.1723 12.0606 33.5379 12.1705 32.8182 12.1705ZM40.8239 6.95455V12H38.4034V3.27273H40.7102V4.8125H40.8125C41.0057 4.30492 41.3295 3.90341 41.7841 3.60795C42.2386 3.30871 42.7898 3.15909 43.4375 3.15909C44.0436 3.15909 44.572 3.29167 45.0227 3.55682C45.4735 3.82197 45.8239 4.20076 46.0739 4.69318C46.3239 5.18182 46.4489 5.76515 46.4489 6.44318V12H44.0284V6.875C44.0322 6.34091 43.8958 5.92424 43.6193 5.625C43.3428 5.32197 42.9621 5.17045 42.4773 5.17045C42.1515 5.17045 41.8636 5.24053 41.6136 5.38068C41.3674 5.52083 41.1742 5.72538 41.0341 5.99432C40.8977 6.25947 40.8277 6.57955 40.8239 6.95455ZM47.2244 2.39205V0.363636H56.7812V2.39205H53.2188V12H50.7869V2.39205H47.2244ZM61.0213 12.1705C60.1236 12.1705 59.3509 11.9886 58.7031 11.625C58.0592 11.2576 57.563 10.7386 57.2145 10.0682C56.866 9.39394 56.6918 8.59659 56.6918 7.67614C56.6918 6.77841 56.866 5.99053 57.2145 5.3125C57.563 4.63447 58.0535 4.10606 58.6861 3.72727C59.3224 3.34848 60.0687 3.15909 60.9247 3.15909C61.5005 3.15909 62.0365 3.25189 62.5327 3.4375C63.0327 3.61932 63.4683 3.89394 63.8395 4.26136C64.2145 4.62879 64.5062 5.09091 64.7145 5.64773C64.9228 6.20076 65.027 6.84848 65.027 7.59091V8.25568H57.6577V6.75568H62.7486C62.7486 6.4072 62.6728 6.09848 62.5213 5.82955C62.3698 5.56061 62.1596 5.35038 61.8906 5.19886C61.6255 5.04356 61.3168 4.96591 60.9645 4.96591C60.5971 4.96591 60.2713 5.05114 59.9872 5.22159C59.7069 5.38826 59.4872 5.61364 59.3281 5.89773C59.169 6.17803 59.0876 6.49053 59.0838 6.83523V8.26136C59.0838 8.69318 59.1634 9.06629 59.3224 9.38068C59.4853 9.69508 59.7145 9.9375 60.0099 10.108C60.3054 10.2784 60.6558 10.3636 61.0611 10.3636C61.33 10.3636 61.5762 10.3258 61.7997 10.25C62.0232 10.1742 62.2145 10.0606 62.3736 9.90909C62.5327 9.75758 62.6539 9.57197 62.7372 9.35227L64.9759 9.5C64.8622 10.0379 64.6293 10.5076 64.277 10.9091C63.9285 11.3068 63.4777 11.6174 62.9247 11.8409C62.3755 12.0606 61.741 12.1705 61.0213 12.1705ZM70.5497 12.1705C69.6558 12.1705 68.8868 11.9811 68.2429 11.6023C67.6027 11.2197 67.1103 10.6894 66.7656 10.0114C66.4247 9.33333 66.2543 8.55303 66.2543 7.67045C66.2543 6.77652 66.4266 5.99242 66.7713 5.31818C67.1198 4.64015 67.6141 4.11174 68.2543 3.73295C68.8944 3.35038 69.6558 3.15909 70.5384 3.15909C71.2997 3.15909 71.9664 3.29735 72.5384 3.57386C73.1103 3.85038 73.563 4.23864 73.8963 4.73864C74.2296 5.23864 74.4134 5.82576 74.4474 6.5H72.1634C72.099 6.06439 71.9285 5.71401 71.652 5.44886C71.3793 5.17992 71.0213 5.04545 70.5781 5.04545C70.2031 5.04545 69.8755 5.14773 69.5952 5.35227C69.3187 5.55303 69.1027 5.84659 68.9474 6.23295C68.7921 6.61932 68.7145 7.08712 68.7145 7.63636C68.7145 8.19318 68.7902 8.66667 68.9418 9.05682C69.0971 9.44697 69.3149 9.74432 69.5952 9.94886C69.8755 10.1534 70.2031 10.2557 70.5781 10.2557C70.8546 10.2557 71.1027 10.1989 71.3224 10.0852C71.5459 9.97159 71.7296 9.80682 71.8736 9.59091C72.0213 9.37121 72.1179 9.10795 72.1634 8.80114H74.4474C74.4096 9.4678 74.2277 10.0549 73.902 10.5625C73.58 11.0663 73.1349 11.4602 72.5668 11.7443C71.9986 12.0284 71.3262 12.1705 70.5497 12.1705ZM78.4176 6.95455V12H75.9972V0.363636H78.3494V4.8125H78.4517C78.6487 4.29735 78.9669 3.89394 79.4062 3.60227C79.8456 3.30682 80.3968 3.15909 81.0597 3.15909C81.6657 3.15909 82.1941 3.29167 82.6449 3.55682C83.0994 3.81818 83.4517 4.19508 83.7017 4.6875C83.9555 5.17614 84.0805 5.76136 84.0767 6.44318V12H81.6562V6.875C81.66 6.33712 81.5237 5.91856 81.2472 5.61932C80.9744 5.32008 80.5919 5.17045 80.0994 5.17045C79.7699 5.17045 79.4782 5.24053 79.2244 5.38068C78.9744 5.52083 78.7775 5.72538 78.6335 5.99432C78.4934 6.25947 78.4214 6.57955 78.4176 6.95455ZM95.8935 0.363636V12H93.4332V0.363636H95.8935ZM100.293 6.95455V12H97.8722V3.27273H100.179V4.8125H100.281C100.474 4.30492 100.798 3.90341 101.253 3.60795C101.707 3.30871 102.259 3.15909 102.906 3.15909C103.512 3.15909 104.041 3.29167 104.491 3.55682C104.942 3.82197 105.293 4.20076 105.543 4.69318C105.793 5.18182 105.918 5.76515 105.918 6.44318V12H103.497V6.875C103.501 6.34091 103.365 5.92424 103.088 5.625C102.812 5.32197 102.431 5.17045 101.946 5.17045C101.62 5.17045 101.332 5.24053 101.082 5.38068C100.836 5.52083 100.643 5.72538 100.503 5.99432C100.366 6.25947 100.296 6.57955 100.293 6.95455ZM110.246 6.95455V12H107.825V3.27273H110.132V4.8125H110.234C110.428 4.30492 110.751 3.90341 111.206 3.60795C111.661 3.30871 112.212 3.15909 112.859 3.15909C113.465 3.15909 113.994 3.29167 114.445 3.55682C114.895 3.82197 115.246 4.20076 115.496 4.69318C115.746 5.18182 115.871 5.76515 115.871 6.44318V12H113.45V6.875C113.454 6.34091 113.318 5.92424 113.041 5.625C112.765 5.32197 112.384 5.17045 111.899 5.17045C111.573 5.17045 111.286 5.24053 111.036 5.38068C110.789 5.52083 110.596 5.72538 110.456 5.99432C110.32 6.25947 110.25 6.57955 110.246 6.95455ZM121.722 12.1705C120.839 12.1705 120.076 11.983 119.432 11.608C118.792 11.2292 118.297 10.7027 117.949 10.0284C117.6 9.35038 117.426 8.56439 117.426 7.67045C117.426 6.76894 117.6 5.98106 117.949 5.30682C118.297 4.62879 118.792 4.10227 119.432 3.72727C120.076 3.34848 120.839 3.15909 121.722 3.15909C122.604 3.15909 123.366 3.34848 124.006 3.72727C124.65 4.10227 125.146 4.62879 125.494 5.30682C125.843 5.98106 126.017 6.76894 126.017 7.67045C126.017 8.56439 125.843 9.35038 125.494 10.0284C125.146 10.7027 124.65 11.2292 124.006 11.608C123.366 11.983 122.604 12.1705 121.722 12.1705ZM121.733 10.2955C122.134 10.2955 122.47 10.1818 122.739 9.95455C123.008 9.72348 123.21 9.40909 123.347 9.01136C123.487 8.61364 123.557 8.16098 123.557 7.65341C123.557 7.14583 123.487 6.69318 123.347 6.29545C123.21 5.89773 123.008 5.58333 122.739 5.35227C122.47 5.12121 122.134 5.00568 121.733 5.00568C121.328 5.00568 120.987 5.12121 120.71 5.35227C120.438 5.58333 120.231 5.89773 120.091 6.29545C119.955 6.69318 119.886 7.14583 119.886 7.65341C119.886 8.16098 119.955 8.61364 120.091 9.01136C120.231 9.40909 120.438 9.72348 120.71 9.95455C120.987 10.1818 121.328 10.2955 121.733 10.2955ZM135.446 3.27273L132.395 12H129.668L126.616 3.27273H129.173L130.986 9.51705H131.077L132.884 3.27273H135.446ZM138.939 12.1648C138.382 12.1648 137.886 12.0682 137.45 11.875C137.015 11.678 136.67 11.3883 136.416 11.0057C136.166 10.6193 136.041 10.1383 136.041 9.5625C136.041 9.07765 136.13 8.67045 136.308 8.34091C136.486 8.01136 136.729 7.74621 137.036 7.54545C137.342 7.3447 137.691 7.19318 138.081 7.09091C138.475 6.98864 138.888 6.91667 139.32 6.875C139.827 6.82197 140.236 6.77273 140.547 6.72727C140.857 6.67803 141.083 6.60606 141.223 6.51136C141.363 6.41667 141.433 6.27652 141.433 6.09091V6.05682C141.433 5.69697 141.32 5.41856 141.092 5.22159C140.869 5.02462 140.551 4.92614 140.138 4.92614C139.702 4.92614 139.356 5.02273 139.098 5.21591C138.84 5.4053 138.67 5.64394 138.587 5.93182L136.348 5.75C136.462 5.2197 136.685 4.76136 137.018 4.375C137.352 3.98485 137.782 3.68561 138.308 3.47727C138.839 3.26515 139.452 3.15909 140.149 3.15909C140.634 3.15909 141.098 3.21591 141.541 3.32955C141.988 3.44318 142.384 3.61932 142.729 3.85795C143.077 4.09659 143.352 4.40341 143.553 4.77841C143.753 5.14962 143.854 5.5947 143.854 6.11364V12H141.558V10.7898H141.49C141.35 11.0625 141.162 11.303 140.928 11.5114C140.693 11.7159 140.411 11.8769 140.081 11.9943C139.751 12.108 139.371 12.1648 138.939 12.1648ZM139.632 10.4943C139.988 10.4943 140.303 10.4242 140.575 10.2841C140.848 10.1402 141.062 9.94697 141.217 9.70455C141.373 9.46212 141.45 9.1875 141.45 8.88068V7.95455C141.375 8.00379 141.27 8.04924 141.138 8.09091C141.009 8.12879 140.863 8.16477 140.7 8.19886C140.537 8.22917 140.375 8.25758 140.212 8.28409C140.049 8.30682 139.901 8.32765 139.768 8.34659C139.484 8.38826 139.236 8.45455 139.024 8.54545C138.812 8.63636 138.647 8.75947 138.53 8.91477C138.412 9.06629 138.354 9.25568 138.354 9.48295C138.354 9.8125 138.473 10.0644 138.712 10.2386C138.954 10.4091 139.261 10.4943 139.632 10.4943ZM150.374 3.27273V5.09091H145.118V3.27273H150.374ZM146.311 1.18182H148.732V9.31818C148.732 9.54167 148.766 9.71591 148.834 9.84091C148.902 9.96212 148.997 10.0473 149.118 10.0966C149.243 10.1458 149.387 10.1705 149.55 10.1705C149.663 10.1705 149.777 10.161 149.891 10.142C150.004 10.1193 150.091 10.1023 150.152 10.0909L150.533 11.892C150.411 11.9299 150.241 11.9735 150.021 12.0227C149.802 12.0758 149.535 12.108 149.22 12.1193C148.637 12.142 148.125 12.0644 147.686 11.8864C147.25 11.7083 146.911 11.4318 146.669 11.0568C146.427 10.6818 146.307 10.2083 146.311 9.63636V1.18182ZM155.8 12.1705C154.917 12.1705 154.154 11.983 153.51 11.608C152.87 11.2292 152.375 10.7027 152.027 10.0284C151.679 9.35038 151.504 8.56439 151.504 7.67045C151.504 6.76894 151.679 5.98106 152.027 5.30682C152.375 4.62879 152.87 4.10227 153.51 3.72727C154.154 3.34848 154.917 3.15909 155.8 3.15909C156.682 3.15909 157.444 3.34848 158.084 3.72727C158.728 4.10227 159.224 4.62879 159.572 5.30682C159.921 5.98106 160.095 6.76894 160.095 7.67045C160.095 8.56439 159.921 9.35038 159.572 10.0284C159.224 10.7027 158.728 11.2292 158.084 11.608C157.444 11.983 156.682 12.1705 155.8 12.1705ZM155.811 10.2955C156.213 10.2955 156.548 10.1818 156.817 9.95455C157.086 9.72348 157.288 9.40909 157.425 9.01136C157.565 8.61364 157.635 8.16098 157.635 7.65341C157.635 7.14583 157.565 6.69318 157.425 6.29545C157.288 5.89773 157.086 5.58333 156.817 5.35227C156.548 5.12121 156.213 5.00568 155.811 5.00568C155.406 5.00568 155.065 5.12121 154.788 5.35227C154.516 5.58333 154.309 5.89773 154.169 6.29545C154.033 6.69318 153.964 7.14583 153.964 7.65341C153.964 8.16098 154.033 8.61364 154.169 9.01136C154.309 9.40909 154.516 9.72348 154.788 9.95455C155.065 10.1818 155.406 10.2955 155.811 10.2955ZM161.669 12V3.27273H164.016V4.79545H164.107C164.266 4.25379 164.533 3.8447 164.908 3.56818C165.283 3.28788 165.714 3.14773 166.203 3.14773C166.324 3.14773 166.455 3.1553 166.595 3.17045C166.735 3.18561 166.858 3.20644 166.964 3.23295V5.38068C166.851 5.34659 166.694 5.31629 166.493 5.28977C166.292 5.26326 166.108 5.25 165.942 5.25C165.586 5.25 165.268 5.32765 164.987 5.48295C164.711 5.63447 164.491 5.84659 164.328 6.11932C164.169 6.39205 164.089 6.70644 164.089 7.0625V12H161.669ZM175.477 5.76136L173.261 5.89773C173.223 5.70833 173.142 5.53788 173.017 5.38636C172.892 5.23106 172.727 5.10795 172.523 5.01705C172.322 4.92235 172.081 4.875 171.801 4.875C171.426 4.875 171.11 4.95455 170.852 5.11364C170.595 5.26894 170.466 5.47727 170.466 5.73864C170.466 5.94697 170.549 6.12311 170.716 6.26705C170.883 6.41098 171.169 6.52652 171.574 6.61364L173.153 6.93182C174.002 7.10606 174.634 7.38636 175.051 7.77273C175.468 8.15909 175.676 8.66667 175.676 9.29545C175.676 9.86742 175.508 10.3693 175.17 10.8011C174.837 11.233 174.379 11.5701 173.795 11.8125C173.216 12.0511 172.547 12.1705 171.79 12.1705C170.634 12.1705 169.714 11.9299 169.028 11.4489C168.347 10.964 167.947 10.3049 167.83 9.47159L170.21 9.34659C170.282 9.69886 170.456 9.9678 170.733 10.1534C171.009 10.3352 171.364 10.4261 171.795 10.4261C172.22 10.4261 172.561 10.3447 172.818 10.1818C173.08 10.0152 173.212 9.80114 173.216 9.53977C173.212 9.32008 173.119 9.14015 172.938 9C172.756 8.85606 172.475 8.74621 172.097 8.67045L170.585 8.36932C169.733 8.19886 169.098 7.90341 168.682 7.48295C168.269 7.0625 168.062 6.52652 168.062 5.875C168.062 5.31439 168.214 4.83144 168.517 4.42614C168.824 4.02083 169.254 3.70833 169.807 3.48864C170.364 3.26894 171.015 3.15909 171.761 3.15909C172.864 3.15909 173.731 3.39205 174.364 3.85795C175 4.32386 175.371 4.95833 175.477 5.76136Z" fill="#FAF9F9"/>
</svg>
